<svg width="16" height="16" viewBox="0 0 16 16" fill="none" xmlns="http://www.w3.org/2000/svg">
<path d="M9.10518 2.69098C9.41872 2.73057 9.6183 3.67566 10.3436 3.88122C10.877 4.03173 11.444 3.9501 11.5697 4.25979C11.325 4.38535 11.5178 4.80108 11.764 4.73274C11.9672 4.18088 12.0697 2.04691 9.10518 2.69098ZM10.082 3.11647C10.1084 3.04868 10.1463 3.10318 10.2257 3.05491C10.3105 2.97762 10.3972 2.85044 10.5351 2.80813C10.6339 2.77912 10.7692 2.79268 10.8615 2.82712C10.923 2.84203 10.8857 2.99444 10.8396 3.03376C10.7414 3.10373 10.4517 2.9882 10.4517 3.19783C10.4638 3.54223 10.9331 3.18725 11.1784 3.19674C11.2983 4.03634 9.86869 3.80556 10.082 3.11647ZM13.7606 8.23403L13.7645 12.1231C13.3662 12.1231 12.9118 11.9119 12.1587 11.9642C11.4833 12.0125 11.0993 12.4643 10.8955 12.9584C10.7902 13.2136 10.6869 13.7879 10.7094 13.8275C10.7456 13.9159 12.21 14.7577 13.7645 14.7577V15.9713C12.1999 15.9713 10.7262 14.3702 10.5438 13.8739C10.4736 13.6852 10.4259 13.261 10.4189 13.1566C10.4074 12.8008 10.3521 12.4114 10.3234 11.9411C10.274 11.1276 9.52651 10.2251 9.24328 9.62983C9.14616 9.4259 8.99879 8.96461 8.9143 8.74847C8.67795 8.1459 8.35458 6.31539 8.31781 6.14535C7.4277 1.98969 7.18293 1.51918 7.18293 1.51918C7.18293 1.51918 7.48665 1.39607 8.15893 3.09125C8.32426 3.51376 8.55247 4.20718 8.66111 4.67118C8.78012 5.17017 8.92946 5.71417 9.07458 6.26332C9.21746 6.79457 9.31318 7.35186 9.44258 7.87986C9.65535 8.74874 10.3189 9.40203 10.5084 10.2902C10.6131 10.7916 10.9157 11.075 11.2472 11.2944C11.9509 11.7589 13.1765 11.1449 13.3412 10.4691C13.3637 10.3753 13.3752 10.1736 13.3637 10.0851C13.3182 9.69952 13.1745 9.45274 12.8132 9.28949C12.7397 9.25667 12.4332 9.12705 12.1901 8.98603C11.917 8.82657 11.2874 8.04529 11.7368 7.82454C11.972 7.71118 12.2572 8.18576 12.5615 8.20908C12.921 8.23728 13.1888 7.81234 13.7606 8.23403ZM7.00974 3.82996C7.12707 4.23132 7.35023 5.12651 6.73549 5.99213C6.21788 6.71783 5.61184 7.75593 5.48244 8.72298C5.41451 9.23986 5.44455 9.73288 5.47177 10.1668C5.50602 10.701 5.57704 11.5569 5.11079 11.9241C4.73437 12.1502 5.28118 11.7402 4.79949 10.6248C4.52609 9.99023 4.28048 9.31661 4.47388 8.2324C4.54433 7.84271 4.81746 7.1699 5.0409 6.77803C5.49704 5.98156 6.95276 4.73898 7.00974 3.82996ZM7.30307 6.41084C7.30307 6.41084 8.18419 7.05817 7.56581 9.68596C7.1383 11.5013 7.62897 12.7718 8.17297 13.3486C9.66265 14.9272 9.30083 15.4202 9.30083 15.4202C8.36581 14.282 5.0816 13.8235 6.8009 8.98169C7.4583 7.13057 7.30307 6.41084 7.30307 6.41084ZM4.05198 3.23661C3.97339 2.95051 3.94953 2.69478 3.96665 2.46644C4.04609 1.32854 5.11556 0.868065 5.38195 0.698574C5.38195 0.698574 5.86279 0.380472 5.92483 0.0593872C5.92483 0.0593872 6.41718 1.25668 5.28819 1.94251C4.71528 2.29125 4.32623 2.69966 4.05198 3.23661ZM6.74869 2.13695C6.8096 2.25247 7.25283 2.87918 5.43753 4.32678C3.62588 5.7722 4.19177 6.80569 4.19177 6.80569C4.19177 6.80569 2.25774 5.76651 4.48567 3.97098C6.71276 2.17681 6.25634 1.81288 6.25634 1.81288C6.25634 1.81288 6.57493 1.79796 6.74869 2.13695Z" fill="#262626"/>
</svg>
