<svg width="24" height="24" viewBox="0 0 24 24" fill="none" xmlns="http://www.w3.org/2000/svg">
<g clip-path="url(#clip0_840_9660)">
<path fill-rule="evenodd" clip-rule="evenodd" d="M0 2.4V21.6C0 22.9782 1.02178 24 2.4 24H21.6C22.9782 24 24 22.9782 24 21.6V2.4C24 1.02178 22.9782 0 21.6 0H2.4C1.02178 0 0 1.02178 0 2.4Z" fill="#FF520E"/>
<path fill-rule="evenodd" clip-rule="evenodd" d="M6.37192 19.4658C7.33278 20.0467 9.25452 20.5518 11.1243 20.5518C15.617 20.5518 17.7465 18.1776 17.7465 15.4246C17.7465 12.9747 16.2922 11.4845 13.2538 10.3732C10.9166 9.48922 9.90375 8.88305 9.90375 7.56968C9.90375 6.5594 10.7607 5.52386 12.7864 5.52386C14.4224 5.52386 15.643 6.00375 16.2922 6.33209L17.0453 3.83164C16.1364 3.37701 14.76 2.9729 12.8643 2.9729C9.04676 2.9729 6.65758 5.06924 6.65758 7.87277C6.65758 10.3227 8.50141 11.8129 11.41 12.8231C13.6174 13.6061 14.5003 14.3638 14.5003 15.6519C14.5003 17.0411 13.3577 17.9756 11.3321 17.9756C9.696 17.9756 8.11187 17.4704 7.09906 16.8895L6.37192 19.4658Z" fill="white"/>
</g>
<defs>
<clipPath id="clip0_840_9660">
<rect width="24" height="24" fill="white"/>
</clipPath>
</defs>
</svg>
